<svg xmlns="http://www.w3.org/2000/svg" viewBox="0 0 971.78 439.35"><defs><style>.cls-1{fill:#c473ff;}.cls-2{fill:#0f3c5b;}.cls-3{fill:#76eeef;}</style></defs><g id="Layer_2" data-name="Layer 2"><g id="Layer_1-2" data-name="Layer 1"><path class="cls-1" d="M970.12,26.88l-15-22.5A9.83,9.83,0,0,0,946.94,0a9.06,9.06,0,0,0-1.38.1L534.76,58.18a9.78,9.78,0,0,0-8.42,8.9l-1,11a.74.74,0,0,1-1.35.34l-8-12a9.83,9.83,0,0,0-8.19-4.38,9.15,9.15,0,0,0-1.38.1L379,80.2a9.83,9.83,0,0,0-8.28,7.85l-2.56,13a.74.74,0,0,1-1.34.27l-8.41-12.61a9.81,9.81,0,0,0-8.19-4.38,10.66,10.66,0,0,0-1.38.09L294.2,92.19A9.91,9.91,0,0,0,286,99.7l-2.61,11.15a.74.74,0,0,1-1.33.24l-7-10.55a9.83,9.83,0,0,0-8.19-4.38,10.66,10.66,0,0,0-1.38.09l-63.51,9a9.88,9.88,0,0,0-8.45,10.36L200.34,224a.74.74,0,0,1-1.35.45l-28.94-42.9-6.83-10.24a9.83,9.83,0,0,0-8.19-4.38,9.15,9.15,0,0,0-1.38.1l-16.78,2.37a.74.74,0,0,1-.83-.8l1.16-13.54a9.85,9.85,0,0,0-1.61-6.31l-14.92-22.37A9.88,9.88,0,0,0,110,122.3L46.26,138.85a9.87,9.87,0,0,0-7.34,8.68l-3.06,35.56a.74.74,0,0,1-.63.67l-22.34,3.16a9.79,9.79,0,0,0-8.43,8.9L0,247.17a9.83,9.83,0,0,0,1.61,6.31l15,22.5a9.83,9.83,0,0,0,8.19,4.38,9.15,9.15,0,0,0,1.38-.1l1.29-.18-5,58.45C20.19,365,25.3,385.07,37.58,398.27l0,.05c.76,1,3.16,4.65,5.1,7.62,5.14,7.85,8.66,13.16,10.81,15.45,11,11.75,26.17,18,43.88,18a103.75,103.75,0,0,0,13.11-.87c.29,0,.53-.08.87-.15,2.08-.44,20.51-4.45,30.19-8.6A115.91,115.91,0,0,0,166,415.54a.72.72,0,0,1,.89,0,28.78,28.78,0,0,0,18.34,6.38c.62,0,1.66,0,22.64-2.89a35.91,35.91,0,0,0,18.32-8.56.73.73,0,0,1,1.08.13,9.79,9.79,0,0,0,8.24,4.45,8.93,8.93,0,0,0,1.37-.1l55.52-7.85a9.82,9.82,0,0,0,8.14-7.22l8.16-30.75a.73.73,0,0,1,.61-.54l2.25-.31a.73.73,0,0,1,.83.65h0a10.66,10.66,0,0,0,1.73,4.85l15,22.5a9.83,9.83,0,0,0,8.19,4.38,9.15,9.15,0,0,0,1.38-.1l55.54-7.85a9.92,9.92,0,0,0,8.22-7.56L409,356.52l.45-.07a9.68,9.68,0,0,0,1.48,3.66l15,22.5a9.83,9.83,0,0,0,8.19,4.38,10.66,10.66,0,0,0,1.38-.09l65.21-9.23a9.79,9.79,0,0,0,8.43-8.9l1-11a.74.74,0,0,1,1.35-.34l8,12a9.83,9.83,0,0,0,8.19,4.38,9.15,9.15,0,0,0,1.38-.1L660.34,355.1a9.81,9.81,0,0,0,8.43-8.9l2.31-26.89a.74.74,0,0,1,.76-.67,5.2,5.2,0,0,1,1.2.16c.59.19,2.4,3.18,2.85,3.84l15,22.5a9.81,9.81,0,0,0,8.19,4.38,10.66,10.66,0,0,0,1.38-.09L766,340.15a9.79,9.79,0,0,0,8.43-8.9l2.4-27.86a.74.74,0,0,1,.63-.67l1.65-.23a.75.75,0,0,1,.84.69,9.8,9.8,0,0,0,1.6,4.52l15,22.5a9.83,9.83,0,0,0,8.19,4.38,9.15,9.15,0,0,0,1.38-.1l133.59-18.89a9.79,9.79,0,0,0,8.43-8.9l5.18-60.11a9.84,9.84,0,0,0-1.62-6.31l-15-22.5a9.79,9.79,0,0,0-6.59-4.24.74.74,0,0,1-.64-.79l.17-2.05a.73.73,0,0,1,.63-.66l8.05-1.14a9.78,9.78,0,0,0,8.42-8.9l5.12-59.35a9.9,9.9,0,0,0-1.62-6.31l-15-22.5a9.81,9.81,0,0,0-8.19-4.38c-.19,0-.37,0-.56,0l.07-.82,31.53-4.46a9.81,9.81,0,0,0,8.43-8.9l5.18-60.12A9.85,9.85,0,0,0,970.12,26.88Z"/><path class="cls-2" d="M958.59,92.62l5.18-60.12a1.82,1.82,0,0,0-.3-1.18l-15-22.5a1.84,1.84,0,0,0-1.79-.8L814.77,26.67h0L665.27,47.81h0l-63.57,9h0L535.88,66.1a1.83,1.83,0,0,0-1.57,1.67l-9,104.91a1.84,1.84,0,0,1-1.58,1.67l-3.66.51a1.84,1.84,0,0,1-2.09-2l6.74-78.3a1.82,1.82,0,0,0-.3-1.18l-15-22.5a1.84,1.84,0,0,0-1.79-.8l-65.12,9.21h0l-62.33,8.81a1.84,1.84,0,0,0-1.55,1.47L371.44,126a1.84,1.84,0,0,1-3.64-.23l-.63-9.05a1.83,1.83,0,0,0-.31-.9L351.78,93.19a1.85,1.85,0,0,0-1.79-.81l-54.67,7.73a1.85,1.85,0,0,0-1.54,1.41l-6.41,27.42a1.85,1.85,0,0,1-3.64-.39h0a1.73,1.73,0,0,0-.31-1L268.37,105a1.84,1.84,0,0,0-1.79-.8l-63.52,9a1.83,1.83,0,0,0-1.58,1.94L214.68,324a1.84,1.84,0,0,1-3.23,1.32l-.1-.1a20.64,20.64,0,0,0-15.44-6.62,23.84,23.84,0,0,0-3.36.24l-18.16,2.57c-12.61,1.78-23.36,13.29-24.47,26.19l-.45,5.19a1.84,1.84,0,0,1-3.37.86l-12.48-18.91a1.85,1.85,0,0,0-2.58-.51L124,339.08a76,76,0,0,1-8.25,5,1.84,1.84,0,0,1-2.65-1.81l7-81.88a1.85,1.85,0,0,1,1.58-1.66l37-5.24a1.84,1.84,0,0,0,1.54-1.43l11.49-52.48a1.87,1.87,0,0,0-.26-1.42l-14.93-22.38a1.84,1.84,0,0,0-1.79-.8l-25.35,3.58a1.84,1.84,0,0,1-2.1-2l1.91-22.18a1.84,1.84,0,0,0-.3-1.18L114,130.81a1.85,1.85,0,0,0-2-.76L48.27,146.59a1.86,1.86,0,0,0-1.38,1.63l-3.53,41a1.84,1.84,0,0,1-1.58,1.66L14,194.84a1.84,1.84,0,0,0-1.58,1.67L8,247.86a1.82,1.82,0,0,0,.3,1.18l15,22.5a1.84,1.84,0,0,0,1.79.8l8.95-1.26a1.84,1.84,0,0,1,2.09,2l-5.7,66.15c-2.08,24.15,2.35,42.24,13.15,53.78,1.77,1.93,12.61,19.55,15.77,22.93,8.93,9.53,21.88,15.43,38.05,15.43a96.77,96.77,0,0,0,12.15-.81l.16,0c1.32-.28,19.63-4.24,28.71-8.13a108.39,108.39,0,0,0,26.27-16l1.11-.92a1.86,1.86,0,0,1,2.67.35c.4.53.83,1.05,1.28,1.54a20.64,20.64,0,0,0,15.44,6.62c1.11,0,21.52-2.81,21.52-2.81,8.1-1.15,15.43-6.31,19.93-13.27a1.84,1.84,0,0,1,3.19.19l4,8a1.83,1.83,0,0,0,1.9,1l55.52-7.85a1.83,1.83,0,0,0,1.53-1.35l19.62-74a1.85,1.85,0,0,1,3.62.3l4.33,44.18a1.78,1.78,0,0,0,.3.85l15.1,22.65a1.84,1.84,0,0,0,1.79.8l55.54-7.85a1.86,1.86,0,0,0,1.54-1.42l26.44-116a1.84,1.84,0,0,1,3.63.57l-7.45,86.5a1.81,1.81,0,0,0,.3,1.18l15,22.5a1.84,1.84,0,0,0,1.79.8l65.21-9.22a1.84,1.84,0,0,0,1.58-1.66L510,264.7a1.84,1.84,0,0,1,1.58-1.67l3.66-.52a1.85,1.85,0,0,1,2.09,2l-6.61,76.77a1.82,1.82,0,0,0,.3,1.18l15,22.5a1.84,1.84,0,0,0,1.79.8l66.67-9.42h0l64.71-9.15a1.85,1.85,0,0,0,1.58-1.67l18.12-210.46a1.85,1.85,0,0,1,1.58-1.67L696,131.19a1.84,1.84,0,0,1,2.09,2L682.24,317a1.85,1.85,0,0,0,.31,1.18l15,22.49a1.86,1.86,0,0,0,1.8.81l65.58-9.28a1.84,1.84,0,0,0,1.58-1.66L784.63,120.1a1.84,1.84,0,0,1,1.58-1.66l15.48-2.19a1.84,1.84,0,0,1,2.09,2L788,302.08a1.82,1.82,0,0,0,.3,1.18l15,22.5a1.84,1.84,0,0,0,1.79.8l133.59-18.89a1.84,1.84,0,0,0,1.58-1.66l5.18-60.12a1.87,1.87,0,0,0-.3-1.18l-15-22.5a1.87,1.87,0,0,0-1.79-.81L882,228a1.85,1.85,0,0,1-2.1-2l1.35-15.64a1.85,1.85,0,0,1,1.58-1.67L937.24,201a1.83,1.83,0,0,0,1.57-1.67L943.93,140a1.82,1.82,0,0,0-.31-1.18l-15-22.5a1.85,1.85,0,0,0-1.8-.8l-35.55,5a1.84,1.84,0,0,1-2.1-2l1.15-13.35a1.85,1.85,0,0,1,1.58-1.67l65.1-9.2A1.85,1.85,0,0,0,958.59,92.62Z"/><path class="cls-3" d="M140.8,186,102,191.49a2.49,2.49,0,0,1-2.83-2.69l3.76-43.66a2.51,2.51,0,0,0-3.12-2.63L57.13,153.59a2.51,2.51,0,0,0-1.86,2.2l-3.51,40.85a2.5,2.5,0,0,1-2.14,2.25l-26.75,3.78a2.5,2.5,0,0,0-2.13,2.26l-2.58,30A2.49,2.49,0,0,0,21,237.57l24.47-3.46a2.51,2.51,0,0,1,2.84,2.69L39.41,340q-2.79,32.38,10.75,46.85T92.5,397.6a103.35,103.35,0,0,0,26.38-7.5,98.25,98.25,0,0,0,22.55-13.45,2.49,2.49,0,0,0,.68-3l-11.84-24.54a2.5,2.5,0,0,0-3.6-1q-11.81,7.59-21.55,9Q94.4,358.57,90,352.79t-3.15-20.64L95.71,229a2.5,2.5,0,0,1,2.13-2.26l37-5.22a2.49,2.49,0,0,0,2.08-1.94L143.59,189A2.5,2.5,0,0,0,140.8,186Z"/><path class="cls-3" d="M427.2,90.56l-39,5.51a2.49,2.49,0,0,0-2.1,2L357.54,243.52a2.5,2.5,0,0,1-4.94-.3L343,105.16a2.49,2.49,0,0,0-2.84-2.3l-37.05,5.24A2.48,2.48,0,0,0,301,110L266.65,257.12a2.5,2.5,0,0,1-4.93-.52L259,117.16a2.5,2.5,0,0,0-2.84-2.42l-43,6.08a2.49,2.49,0,0,0-2.14,2.63l15.6,246.83a2.5,2.5,0,0,0,2.84,2.31l38.2-5.4a2.5,2.5,0,0,0,2.06-1.83l39.82-150.07a2.49,2.49,0,0,1,4.89.4L328.18,356a2.49,2.49,0,0,0,2.83,2.23l38.22-5.4a2.51,2.51,0,0,0,2.09-1.92L430,93.58A2.49,2.49,0,0,0,427.2,90.56Z"/><path class="cls-3" d="M589.21,67.65l-44.46,6.29a2.49,2.49,0,0,0-2.14,2.25l-8.94,103.88a2.5,2.5,0,0,1-2.14,2.26l-38.91,5.5a2.5,2.5,0,0,1-2.84-2.68l8.75-101.59a2.49,2.49,0,0,0-2.83-2.69l-44.46,6.29a2.5,2.5,0,0,0-2.14,2.25L427.39,341.52a2.48,2.48,0,0,0,2.83,2.68l44.46-6.28a2.51,2.51,0,0,0,2.14-2.26l8.81-102.35a2.5,2.5,0,0,1,2.14-2.26l38.91-5.5a2.49,2.49,0,0,1,2.84,2.68L520.9,328.3a2.48,2.48,0,0,0,2.83,2.68l44.46-6.28a2.51,2.51,0,0,0,2.14-2.26L592,70.33A2.49,2.49,0,0,0,589.21,67.65Z"/><path class="cls-3" d="M655.37,58.3,612,64.42a2.51,2.51,0,0,0-2.14,2.26L588.17,318.79a2.49,2.49,0,0,0,2.83,2.68l43.35-6.13a2.5,2.5,0,0,0,2.14-2.25L658.2,61A2.48,2.48,0,0,0,655.37,58.3Z"/><path class="cls-3" d="M801.23,79l3.33-38.72a2.49,2.49,0,0,0-2.83-2.69L675.59,55.44a2.5,2.5,0,0,0-2.14,2.25l-3.33,38.72A2.49,2.49,0,0,0,673,99.1l34.45-4.87a2.49,2.49,0,0,1,2.84,2.68L692.39,304.05a2.49,2.49,0,0,0,2.84,2.68l44.82-6.33a2.5,2.5,0,0,0,2.14-2.26l18-209.43a2.51,2.51,0,0,1,2.14-2.26l36.72-5.19A2.5,2.5,0,0,0,801.23,79Z"/><path class="cls-3" d="M934.78,18.79,822,34.74A2.51,2.51,0,0,0,819.81,37L798.1,289.1a2.49,2.49,0,0,0,2.83,2.69l112.84-16a2.5,2.5,0,0,0,2.13-2.26l3.34-38.72a2.49,2.49,0,0,0-2.84-2.68l-61.8,8.73a2.48,2.48,0,0,1-2.83-2.68l5.11-59.3a2.49,2.49,0,0,1,2.13-2.25l53.36-7.55a2.49,2.49,0,0,0,2.14-2.25l3.27-38a2.49,2.49,0,0,0-2.84-2.68l-51.08,7.22a2.51,2.51,0,0,1-2.84-2.69l4.92-57a2.48,2.48,0,0,1,2.13-2.26l64.08-9.06a2.49,2.49,0,0,0,2.13-2.26l3.34-38.72A2.49,2.49,0,0,0,934.78,18.79Z"/><path class="cls-3" d="M193.81,327.75l-18.16,2.57c-8.5,1.2-16,9.28-16.76,18.05l-1.62,18.72c-.75,8.77,5.53,14.9,14,13.7l18.16-2.57c8.5-1.2,16-9.28,16.76-18.05l1.62-18.72C208.59,332.68,202.31,326.55,193.81,327.75Z"/></g></g></svg>