<svg xmlns="http://www.w3.org/2000/svg" viewBox="0 0 241.03 317.36"><defs><style>.cls-1{fill:#fb9271;}.cls-2{fill:#0f3c5b;}.cls-3{fill:#76eeef;}</style></defs><g id="Layer_2" data-name="Layer 2"><g id="Layer_1-2" data-name="Layer 1"><path class="cls-1" d="M97.79,317.36h-.38a70.83,70.83,0,0,1-8.42-.51l-.86-.1L87,316.59C74.67,314.84,64.35,310,56.37,302.2c-1.08-1-2-1.91-2.84-2.8-2.15-2.29-5.67-7.6-10.81-15.45-2-3-4.38-6.69-5.11-7.64C25.3,263.11,20.19,243,22.47,216.54l5-58.35-.23,0a9.36,9.36,0,0,1-1.3.09h-.09c-.34,0-.69.05-1,.05A9.83,9.83,0,0,1,16.65,154l-15-22.5A9.91,9.91,0,0,1,0,125.19L4.46,73.83a9.79,9.79,0,0,1,8.43-8.9l22.92-3.24,3.11-36.15a9.88,9.88,0,0,1,7.34-8.68L110,.32a9.81,9.81,0,0,1,10.66,4.07l14.92,22.37a9.92,9.92,0,0,1,1.63,4.85,9.21,9.21,0,0,1,.13,2.51L136.2,47.49,153.65,45a9.15,9.15,0,0,1,1.38-.1,9.83,9.83,0,0,1,8.19,4.38L178.14,71.7A9.88,9.88,0,0,1,179.79,77a9.67,9.67,0,0,1-.14,3.26L168.31,132a9.57,9.57,0,0,1-8,7.4L127.88,144l-5.55,64.51,4.2-2.87a9.83,9.83,0,0,1,13.77,2.71l4.13,6.26c4.85-12,15.93-21.28,28.84-23.11l18.16-2.57a32.23,32.23,0,0,1,4.48-.31,28.56,28.56,0,0,1,21.34,9.2l.13.15A113.45,113.45,0,0,1,226,210c10.6,15.69,15.65,28.39,15,37.75l0,.25-1.61,16.16c-1.44,16.48-14.71,30.63-30.88,32.91l-18.16,2.57a30.58,30.58,0,0,1-4.37.31h-.74a28.78,28.78,0,0,1-18.52-6.53,115.67,115.67,0,0,1-24.6,14.37,120.55,120.55,0,0,1-30.58,8.66l-.16,0a103.88,103.88,0,0,1-13.18.88Z"/><path class="cls-2" d="M219.26,214.36a110.35,110.35,0,0,0-7.81-11l-.1-.11a20.63,20.63,0,0,0-15.44-6.61,25.41,25.41,0,0,0-3.36.23l-18.16,2.57c-12.61,1.78-23.36,13.29-24.47,26.19l-.45,5.19a1.84,1.84,0,0,1-3.37.86l-12.48-18.91a1.85,1.85,0,0,0-2.58-.51L124,217.09a74.15,74.15,0,0,1-8.25,5,1.82,1.82,0,0,1-2.49-.91l7.14-82.95a1.55,1.55,0,0,1,1.32-1.39l37.54-5.31a1.53,1.53,0,0,0,1.29-1.19l11.33-51.77a1.48,1.48,0,0,0-.09-.93v0a1.87,1.87,0,0,0-.26-1.42L156.56,53.75a1.84,1.84,0,0,0-1.79-.8l-25.35,3.58a1.85,1.85,0,0,1-1.94-1.07h0l1.9-22a1.58,1.58,0,0,0-.17-.8l0-.27a1.84,1.84,0,0,0-.3-1.18L114,8.82a1.85,1.85,0,0,0-2-.76L48.27,24.6a1.86,1.86,0,0,0-1.38,1.63l-3.53,41a1.84,1.84,0,0,1-1.58,1.66L14,72.85a1.84,1.84,0,0,0-1.58,1.67L8,125.87a1.82,1.82,0,0,0,.3,1.18l15,22.5a1.84,1.84,0,0,0,1.79.8l.53-.07a1.51,1.51,0,0,0,.52,0l8.47-1.19a1.84,1.84,0,0,1,1.52,2l-5.7,66.16c-2.08,24.14,2.35,42.23,13.15,53.77,1.78,1.93,12.61,19.55,15.78,22.93.8.86,1.64,1.68,2.51,2.47,6.77,6.66,15.58,10.75,26.31,12.28l.94.13.82.1a62.16,62.16,0,0,0,7.46.45h.75a95.79,95.79,0,0,0,12.11-.81l.11,0a112.21,112.21,0,0,0,28.55-8.1,107.39,107.39,0,0,0,26.15-15.95l1.75-1.45a1.87,1.87,0,0,1,1.65.76,19,19,0,0,0,1.28,1.54A20.64,20.64,0,0,0,185.2,292l.28,0,.46,0a23.9,23.9,0,0,0,3.25-.23l18.16-2.57c12.38-1.75,22.94-13,24-25.73L233,247.21C233.62,238,225.93,224.21,219.26,214.36Z"/><path class="cls-3" d="M140.8,64,102,69.5a2.49,2.49,0,0,1-2.83-2.69l3.76-43.66a2.5,2.5,0,0,0-3.12-2.62L57.13,31.6a2.52,2.52,0,0,0-1.86,2.2L51.76,74.65a2.49,2.49,0,0,1-2.14,2.25L22.87,80.69a2.48,2.48,0,0,0-2.13,2.25l-2.58,30A2.48,2.48,0,0,0,21,115.58l24.47-3.46a2.51,2.51,0,0,1,2.84,2.69L39.41,218q-2.79,32.38,10.75,46.85T92.5,275.61a103.73,103.73,0,0,0,26.38-7.49,98.64,98.64,0,0,0,22.55-13.46,2.49,2.49,0,0,0,.68-3L130.27,227.1a2.5,2.5,0,0,0-3.6-1q-11.81,7.59-21.55,9Q94.4,236.58,90,230.8t-3.15-20.64L95.71,107a2.48,2.48,0,0,1,2.13-2.25l37-5.23a2.49,2.49,0,0,0,2.08-1.94L143.59,67A2.5,2.5,0,0,0,140.8,64Z"/><path class="cls-3" d="M193.81,205.77l-18.16,2.56c-8.5,1.2-16,9.28-16.76,18l-1.62,18.72c-.75,8.77,5.53,14.9,14,13.7l18.16-2.57c8.5-1.2,16-9.28,16.76-18.05l1.62-18.72C208.59,210.69,202.31,204.56,193.81,205.77Z"/></g></g></svg>