<svg xmlns="http://www.w3.org/2000/svg" viewBox="0 0 955.78 423.35"><defs><style>.cls-1{fill:#343c44;}.cls-2{fill:#76eeef;}</style></defs><g id="Layer_2" data-name="Layer 2"><g id="Layer_1-2" data-name="Layer 1"><path class="cls-1" d="M950.59,84.62l5.18-60.12a1.82,1.82,0,0,0-.3-1.18l-15-22.5a1.84,1.84,0,0,0-1.79-.8L806.77,18.67h0L657.27,39.81h0l-63.57,9h0L527.88,58.1a1.84,1.84,0,0,0-1.57,1.67l-9,104.91a1.84,1.84,0,0,1-1.58,1.67l-3.66.51a1.84,1.84,0,0,1-2.09-2l6.74-78.3a1.82,1.82,0,0,0-.3-1.18l-15-22.5a1.84,1.84,0,0,0-1.79-.8l-65.12,9.21h0l-62.33,8.81a1.84,1.84,0,0,0-1.55,1.47L363.44,118a1.84,1.84,0,0,1-3.64-.23l-.63-9.05a1.83,1.83,0,0,0-.31-.9L343.78,85.19a1.85,1.85,0,0,0-1.79-.81l-54.67,7.73a1.85,1.85,0,0,0-1.54,1.41l-6.41,27.42a1.85,1.85,0,0,1-3.64-.39h0a1.79,1.79,0,0,0-.3-1L260.37,97a1.84,1.84,0,0,0-1.79-.8l-63.52,9a1.83,1.83,0,0,0-1.58,1.94L206.68,316a1.84,1.84,0,0,1-3.23,1.32l-.1-.1a20.64,20.64,0,0,0-15.44-6.62,23.84,23.84,0,0,0-3.36.24l-18.16,2.57c-12.61,1.78-23.36,13.29-24.47,26.19l-.45,5.19a1.84,1.84,0,0,1-3.37.86l-12.48-18.91a1.85,1.85,0,0,0-2.58-.51L116,331.08a74.15,74.15,0,0,1-8.25,5,1.84,1.84,0,0,1-2.65-1.81l7-81.88a1.85,1.85,0,0,1,1.58-1.66l37-5.24a1.84,1.84,0,0,0,1.54-1.43l11.49-52.48a1.87,1.87,0,0,0-.26-1.42l-14.93-22.38a1.84,1.84,0,0,0-1.79-.8l-25.35,3.58a1.84,1.84,0,0,1-2.1-2l1.91-22.18a1.84,1.84,0,0,0-.3-1.18L106,122.81a1.85,1.85,0,0,0-2-.76L40.27,138.59a1.86,1.86,0,0,0-1.38,1.63l-3.53,41a1.84,1.84,0,0,1-1.58,1.66L6,186.84a1.84,1.84,0,0,0-1.58,1.67L0,239.86A1.82,1.82,0,0,0,.31,241l15,22.5a1.84,1.84,0,0,0,1.79.8l9-1.26a1.84,1.84,0,0,1,2.09,2l-5.7,66.15c-2.08,24.15,2.35,42.24,13.15,53.78,1.78,1.93,12.61,19.55,15.78,22.93,8.92,9.53,21.87,15.43,38,15.43a96.77,96.77,0,0,0,12.15-.81l.16,0c1.32-.28,19.63-4.24,28.71-8.13a108.39,108.39,0,0,0,26.27-16l1.11-.92a1.86,1.86,0,0,1,2.67.35c.4.53.83,1.05,1.28,1.54a20.64,20.64,0,0,0,15.44,6.62c1.11,0,21.52-2.81,21.52-2.81,8.1-1.15,15.43-6.31,19.93-13.27a1.84,1.84,0,0,1,3.19.19l4,8a1.83,1.83,0,0,0,1.9,1l55.52-7.85a1.83,1.83,0,0,0,1.53-1.35l19.62-74a1.85,1.85,0,0,1,3.62.3l4.33,44.18a1.89,1.89,0,0,0,.3.85l15.1,22.65a1.84,1.84,0,0,0,1.79.8l55.54-7.85a1.86,1.86,0,0,0,1.54-1.42l26.44-116a1.84,1.84,0,0,1,3.63.57l-7.45,86.5a1.81,1.81,0,0,0,.3,1.18l15,22.5a1.84,1.84,0,0,0,1.79.8l65.22-9.22a1.83,1.83,0,0,0,1.57-1.66L502,256.7a1.84,1.84,0,0,1,1.58-1.67l3.66-.52a1.85,1.85,0,0,1,2.09,2l-6.61,76.77a1.82,1.82,0,0,0,.3,1.18l15,22.5a1.84,1.84,0,0,0,1.79.8l66.67-9.42h0l64.71-9.15a1.85,1.85,0,0,0,1.58-1.67l18.13-210.46a1.83,1.83,0,0,1,1.57-1.67L688,123.19a1.84,1.84,0,0,1,2.09,2L674.24,309a1.85,1.85,0,0,0,.31,1.18l15,22.49a1.86,1.86,0,0,0,1.8.81l65.58-9.28a1.84,1.84,0,0,0,1.58-1.66L776.63,112.1a1.84,1.84,0,0,1,1.58-1.66l15.48-2.19a1.84,1.84,0,0,1,2.09,2L780,294.08a1.82,1.82,0,0,0,.3,1.18l15,22.5a1.84,1.84,0,0,0,1.79.8l133.59-18.89a1.84,1.84,0,0,0,1.58-1.66l5.18-60.12a1.81,1.81,0,0,0-.3-1.18l-15-22.5a1.87,1.87,0,0,0-1.79-.81L874,220a1.84,1.84,0,0,1-2.09-2l1.34-15.64a1.85,1.85,0,0,1,1.58-1.67L929.24,193a1.83,1.83,0,0,0,1.57-1.67L935.93,132a1.82,1.82,0,0,0-.31-1.18l-15-22.5a1.85,1.85,0,0,0-1.8-.8l-35.55,5a1.84,1.84,0,0,1-2.1-2l1.15-13.35a1.85,1.85,0,0,1,1.58-1.67l65.1-9.2A1.85,1.85,0,0,0,950.59,84.62Z"/><path class="cls-2" d="M132.8,178,94,183.49a2.49,2.49,0,0,1-2.83-2.69l3.76-43.66a2.51,2.51,0,0,0-3.12-2.63L49.13,145.59a2.52,2.52,0,0,0-1.86,2.2l-3.51,40.85a2.5,2.5,0,0,1-2.14,2.25l-26.75,3.78a2.5,2.5,0,0,0-2.13,2.26l-2.58,30A2.49,2.49,0,0,0,13,229.57l24.47-3.46a2.51,2.51,0,0,1,2.84,2.69L31.41,332q-2.79,32.38,10.75,46.85T84.5,389.6a103.35,103.35,0,0,0,26.38-7.5,98.25,98.25,0,0,0,22.55-13.45,2.49,2.49,0,0,0,.68-3l-11.84-24.54a2.5,2.5,0,0,0-3.6-1q-11.81,7.59-21.55,9Q86.4,350.57,82,344.79t-3.15-20.64L87.71,221a2.5,2.5,0,0,1,2.13-2.26l37-5.22a2.52,2.52,0,0,0,2.09-1.94L135.59,181A2.5,2.5,0,0,0,132.8,178Z"/><path class="cls-2" d="M419.2,82.55l-39,5.52a2.49,2.49,0,0,0-2.1,2L349.54,235.52a2.5,2.5,0,0,1-4.94-.3L335,97.16a2.49,2.49,0,0,0-2.84-2.3l-37.05,5.24A2.48,2.48,0,0,0,293,102L258.65,249.12a2.5,2.5,0,0,1-4.93-.52L251,109.16a2.5,2.5,0,0,0-2.84-2.42l-43,6.08a2.49,2.49,0,0,0-2.14,2.63l15.6,246.83a2.5,2.5,0,0,0,2.84,2.31l38.2-5.4a2.5,2.5,0,0,0,2.06-1.83l39.82-150.07a2.49,2.49,0,0,1,4.89.4L320.18,348a2.49,2.49,0,0,0,2.83,2.23l38.23-5.4a2.51,2.51,0,0,0,2.08-1.92L422,85.58A2.5,2.5,0,0,0,419.2,82.55Z"/><path class="cls-2" d="M581.21,59.65l-44.46,6.29a2.49,2.49,0,0,0-2.14,2.25l-8.94,103.88a2.5,2.5,0,0,1-2.14,2.26l-38.91,5.5a2.5,2.5,0,0,1-2.84-2.68l8.75-101.59a2.49,2.49,0,0,0-2.83-2.69l-44.46,6.29a2.5,2.5,0,0,0-2.14,2.25L419.39,333.52a2.49,2.49,0,0,0,2.83,2.68l44.46-6.28a2.51,2.51,0,0,0,2.14-2.26l8.81-102.35a2.5,2.5,0,0,1,2.14-2.26l38.91-5.5a2.49,2.49,0,0,1,2.84,2.68L512.9,320.3a2.49,2.49,0,0,0,2.83,2.68l44.46-6.28a2.51,2.51,0,0,0,2.14-2.26L584,62.33A2.49,2.49,0,0,0,581.21,59.65Z"/><path class="cls-2" d="M647.37,50.3,604,56.42a2.51,2.51,0,0,0-2.14,2.26L580.17,310.79a2.49,2.49,0,0,0,2.83,2.68l43.35-6.13a2.5,2.5,0,0,0,2.14-2.25L650.2,53A2.48,2.48,0,0,0,647.37,50.3Z"/><path class="cls-2" d="M793.23,71l3.33-38.72a2.49,2.49,0,0,0-2.83-2.69L667.59,47.44a2.49,2.49,0,0,0-2.14,2.25l-3.33,38.72A2.49,2.49,0,0,0,665,91.1l34.45-4.87a2.49,2.49,0,0,1,2.84,2.68L684.39,296.05a2.49,2.49,0,0,0,2.84,2.68l44.83-6.33a2.5,2.5,0,0,0,2.13-2.26l18-209.43a2.51,2.51,0,0,1,2.14-2.26l36.72-5.19A2.5,2.5,0,0,0,793.23,71Z"/><path class="cls-2" d="M926.78,10.79,814,26.74A2.51,2.51,0,0,0,811.81,29L790.1,281.1a2.49,2.49,0,0,0,2.83,2.69l112.84-16a2.5,2.5,0,0,0,2.13-2.26l3.34-38.72a2.49,2.49,0,0,0-2.84-2.68l-61.8,8.73a2.49,2.49,0,0,1-2.83-2.68l5.11-59.3a2.49,2.49,0,0,1,2.13-2.25l53.36-7.55a2.49,2.49,0,0,0,2.14-2.25l3.27-38a2.49,2.49,0,0,0-2.84-2.68l-51.08,7.22a2.51,2.51,0,0,1-2.84-2.69l4.92-57a2.49,2.49,0,0,1,2.13-2.26l64.08-9.06a2.49,2.49,0,0,0,2.13-2.26l3.34-38.72A2.49,2.49,0,0,0,926.78,10.79Z"/><path class="cls-2" d="M185.81,319.75l-18.16,2.57c-8.5,1.2-16,9.28-16.76,18.05l-1.62,18.72c-.75,8.77,5.53,14.9,14,13.7l18.16-2.57c8.5-1.2,16-9.28,16.76-18.05l1.62-18.72C200.59,324.68,194.31,318.55,185.81,319.75Z"/></g></g></svg>